<svg width="83" height="13" viewBox="0 0 83 13" fill="none" xmlns="http://www.w3.org/2000/svg">
<path d="M12.4321 4.72759C12.3892 4.58915 12.2751 4.48826 12.1377 4.46735L8.27817 3.87941L6.55207 0.213129C6.49065 0.0826159 6.36384 0 6.22502 0C6.08617 0 5.95939 0.0826159 5.89794 0.213129L4.17177 3.87941L0.312291 4.46735C0.174928 4.48826 0.0607632 4.58915 0.0178693 4.72756C-0.025049 4.866 0.0107446 5.01796 0.110174 5.11954L2.90285 7.97334L2.24369 12.003C2.2202 12.1465 2.27646 12.2914 2.38878 12.377C2.45232 12.4254 2.52758 12.45 2.6032 12.45C2.66127 12.45 2.71953 12.4355 2.77288 12.4061L6.225 10.5035L9.67696 12.4061C9.79988 12.4738 9.94877 12.4625 10.0611 12.377C10.1734 12.2914 10.2297 12.1464 10.2062 12.003L9.54684 7.97334L12.3398 5.11951C12.4392 5.01796 12.4751 4.866 12.4321 4.72759Z" fill="#F6D060"/>
<path d="M30.0698 4.72759C30.0269 4.58915 29.9128 4.48826 29.7754 4.46735L25.9159 3.87941L24.1898 0.213129C24.1283 0.0826159 24.0015 0 23.8627 0C23.7239 0 23.5971 0.0826159 23.5356 0.213129L21.8095 3.87941L17.95 4.46735C17.8126 4.48826 17.6985 4.58915 17.6556 4.72756C17.6126 4.866 17.6484 5.01796 17.7479 5.11954L20.5405 7.97334L19.8814 12.003C19.8579 12.1465 19.9142 12.2914 20.0265 12.377C20.09 12.4254 20.1653 12.45 20.2409 12.45C20.299 12.45 20.3572 12.4355 20.4106 12.4061L23.8627 10.5035L27.3147 12.4061C27.4376 12.4738 27.5865 12.4625 27.6988 12.377C27.8111 12.2914 27.8674 12.1464 27.8439 12.003L27.1845 7.97334L29.9775 5.11951C30.0769 5.01796 30.1128 4.866 30.0698 4.72759Z" fill="#F6D060"/>
<path d="M47.7075 4.72759C47.6646 4.58915 47.5505 4.48826 47.4131 4.46735L43.5536 3.87941L41.8275 0.213129C41.766 0.0826159 41.6392 0 41.5004 0C41.3616 0 41.2348 0.0826159 41.1733 0.213129L39.4472 3.87941L35.5877 4.46735C35.4503 4.48826 35.3362 4.58915 35.2933 4.72756C35.2503 4.866 35.2861 5.01796 35.3856 5.11954L38.1782 7.97334L37.5191 12.003C37.4956 12.1465 37.5519 12.2914 37.6642 12.377C37.7277 12.4254 37.803 12.45 37.8786 12.45C37.9367 12.45 37.9949 12.4355 38.0483 12.4061L41.5004 10.5035L44.9524 12.4061C45.0753 12.4738 45.2242 12.4625 45.3365 12.377C45.4488 12.2914 45.5051 12.1464 45.4816 12.003L44.8222 7.97334L47.6152 5.11951C47.7146 5.01796 47.7505 4.866 47.7075 4.72759Z" fill="#F6D060"/>
<path d="M65.3442 4.72759C65.3013 4.58915 65.1872 4.48826 65.0498 4.46735L61.1903 3.87941L59.4642 0.213129C59.4028 0.0826159 59.276 0 59.1371 0C58.9983 0 58.8715 0.0826159 58.81 0.213129L57.0839 3.87941L53.2244 4.46735C53.087 4.48826 52.9729 4.58915 52.93 4.72756C52.8871 4.866 52.9229 5.01796 53.0223 5.11954L55.815 7.97334L55.1558 12.003C55.1323 12.1465 55.1886 12.2914 55.3009 12.377C55.3644 12.4254 55.4397 12.45 55.5153 12.45C55.5734 12.45 55.6316 12.4355 55.685 12.4061L59.1371 10.5035L62.5891 12.4061C62.712 12.4738 62.8609 12.4625 62.9732 12.377C63.0855 12.2914 63.1418 12.1464 63.1183 12.003L62.459 7.97334L65.2519 5.11951C65.3514 5.01796 65.3872 4.866 65.3442 4.72759Z" fill="#F6D060"/>
<path d="M82.9819 4.72759C82.939 4.58915 82.8249 4.48826 82.6875 4.46735L78.828 3.87941L77.1019 0.213129C77.0405 0.0826159 76.9136 0 76.7748 0C76.636 0 76.5092 0.0826159 76.4477 0.213129L74.7216 3.87941L70.8621 4.46735C70.7247 4.48826 70.6106 4.58915 70.5677 4.72756C70.5248 4.866 70.5605 5.01796 70.66 5.11954L73.4527 7.97334L72.7935 12.003C72.77 12.1465 72.8263 12.2914 72.9386 12.377C73.0021 12.4254 73.0774 12.45 73.153 12.45C73.2111 12.45 73.2693 12.4355 73.3227 12.4061L76.7748 10.5035L80.2268 12.4061C80.3497 12.4738 80.4986 12.4625 80.6109 12.377C80.7232 12.2914 80.7795 12.1464 80.756 12.003L80.0966 7.97334L82.8896 5.11951C82.989 5.01796 83.0249 4.866 82.9819 4.72759Z" fill="#E2E5EA"/>
</svg>
